<mxfile host="www.draw.io" modified="2020-02-15T19:04:54.793Z" agent="Mozilla/5.0 (Windows NT 10.0; Win64; x64) AppleWebKit/537.36 (KHTML, like Gecko) Chrome/79.0.3945.130 Safari/537.36" etag="nLWCrpzVUVUFd2v2ktD0" version="12.7.0" type="github">
  <diagram id="ypnX7qFOFtshU8KXJaiK" name="Page-1">
    <mxGraphModel dx="1952" dy="614" grid="1" gridSize="10" guides="1" tooltips="1" connect="1" arrows="1" fold="1" page="1" pageScale="1" pageWidth="850" pageHeight="1100" math="0" shadow="0">
      <root>
        <mxCell id="0"/>
        <mxCell id="1" parent="0"/>
        <mxCell id="Hyczukfw6HigbMbKwBo8-1" value="12.0&lt;br&gt;View shifts" style="whiteSpace=wrap;html=1;aspect=fixed;" parent="1" vertex="1">
          <mxGeometry x="400" y="40" width="80" height="80" as="geometry"/>
        </mxCell>
        <mxCell id="yZBAhHWUgZmdw2wKlDN5-1" value="&lt;span style=&quot;white-space: normal&quot;&gt;12.1&lt;/span&gt;&lt;br style=&quot;white-space: normal&quot;&gt;&lt;span style=&quot;white-space: normal&quot;&gt;Query database&lt;/span&gt;" style="shape=process;whiteSpace=wrap;html=1;backgroundOutline=1;" vertex="1" parent="1">
          <mxGeometry x="120" y="260" width="120" height="60" as="geometry"/>
        </mxCell>
        <mxCell id="yZBAhHWUgZmdw2wKlDN5-2" value="12.1.1&lt;br&gt;Connect to database" style="shape=process;whiteSpace=wrap;html=1;backgroundOutline=1;" vertex="1" parent="1">
          <mxGeometry x="-120" y="430" width="120" height="60" as="geometry"/>
        </mxCell>
        <mxCell id="yZBAhHWUgZmdw2wKlDN5-3" value="12.1.2&lt;br&gt;Prepare statement" style="shape=process;whiteSpace=wrap;html=1;backgroundOutline=1;" vertex="1" parent="1">
          <mxGeometry x="120" y="430" width="120" height="60" as="geometry"/>
        </mxCell>
        <mxCell id="yZBAhHWUgZmdw2wKlDN5-4" value="&lt;span style=&quot;white-space: normal&quot;&gt;12.1.3&lt;/span&gt;&lt;br style=&quot;white-space: normal&quot;&gt;&lt;span style=&quot;white-space: normal&quot;&gt;Execute statement&lt;/span&gt;" style="shape=process;whiteSpace=wrap;html=1;backgroundOutline=1;fillColor=#FFFFFF;" vertex="1" parent="1">
          <mxGeometry x="360" y="430" width="120" height="60" as="geometry"/>
        </mxCell>
        <mxCell id="yZBAhHWUgZmdw2wKlDN5-5" value="" style="endArrow=classic;html=1;entryX=0.5;entryY=0;entryDx=0;entryDy=0;exitX=0;exitY=1;exitDx=0;exitDy=0;" edge="1" parent="1" source="yZBAhHWUgZmdw2wKlDN5-1" target="yZBAhHWUgZmdw2wKlDN5-2">
          <mxGeometry width="50" height="50" relative="1" as="geometry">
            <mxPoint x="-40" y="390" as="sourcePoint"/>
            <mxPoint x="10" y="340" as="targetPoint"/>
          </mxGeometry>
        </mxCell>
        <mxCell id="yZBAhHWUgZmdw2wKlDN5-6" value="" style="endArrow=classic;html=1;entryX=0.5;entryY=0;entryDx=0;entryDy=0;exitX=0.5;exitY=1;exitDx=0;exitDy=0;" edge="1" parent="1" source="yZBAhHWUgZmdw2wKlDN5-1" target="yZBAhHWUgZmdw2wKlDN5-3">
          <mxGeometry width="50" height="50" relative="1" as="geometry">
            <mxPoint x="140" y="400" as="sourcePoint"/>
            <mxPoint x="190" y="350" as="targetPoint"/>
          </mxGeometry>
        </mxCell>
        <mxCell id="yZBAhHWUgZmdw2wKlDN5-7" value="" style="endArrow=classic;html=1;exitX=1;exitY=1;exitDx=0;exitDy=0;entryX=0.5;entryY=0;entryDx=0;entryDy=0;" edge="1" parent="1" source="yZBAhHWUgZmdw2wKlDN5-1" target="yZBAhHWUgZmdw2wKlDN5-4">
          <mxGeometry width="50" height="50" relative="1" as="geometry">
            <mxPoint x="310" y="390" as="sourcePoint"/>
            <mxPoint x="360" y="340" as="targetPoint"/>
          </mxGeometry>
        </mxCell>
        <mxCell id="yZBAhHWUgZmdw2wKlDN5-8" value="" style="endArrow=classic;html=1;entryX=0.5;entryY=0;entryDx=0;entryDy=0;exitX=0;exitY=1;exitDx=0;exitDy=0;" edge="1" parent="1" source="Hyczukfw6HigbMbKwBo8-1" target="yZBAhHWUgZmdw2wKlDN5-1">
          <mxGeometry width="50" height="50" relative="1" as="geometry">
            <mxPoint x="310" y="190" as="sourcePoint"/>
            <mxPoint x="360" y="140" as="targetPoint"/>
          </mxGeometry>
        </mxCell>
        <mxCell id="yZBAhHWUgZmdw2wKlDN5-9" value="" style="endArrow=classic;html=1;exitX=0.5;exitY=1;exitDx=0;exitDy=0;" edge="1" parent="1" source="yZBAhHWUgZmdw2wKlDN5-37">
          <mxGeometry width="50" height="50" relative="1" as="geometry">
            <mxPoint x="440" y="180" as="sourcePoint"/>
            <mxPoint x="440" y="260" as="targetPoint"/>
          </mxGeometry>
        </mxCell>
        <mxCell id="yZBAhHWUgZmdw2wKlDN5-10" value="" style="endArrow=classic;html=1;" edge="1" parent="1">
          <mxGeometry width="50" height="50" relative="1" as="geometry">
            <mxPoint x="20" y="360" as="sourcePoint"/>
            <mxPoint x="-20" y="390" as="targetPoint"/>
          </mxGeometry>
        </mxCell>
        <mxCell id="yZBAhHWUgZmdw2wKlDN5-11" value="" style="endArrow=classic;html=1;" edge="1" parent="1">
          <mxGeometry width="50" height="50" relative="1" as="geometry">
            <mxPoint x="30" y="400" as="sourcePoint"/>
            <mxPoint x="60" y="380" as="targetPoint"/>
          </mxGeometry>
        </mxCell>
        <mxCell id="yZBAhHWUgZmdw2wKlDN5-14" value="" style="ellipse;whiteSpace=wrap;html=1;aspect=fixed;" vertex="1" parent="1">
          <mxGeometry x="420" y="180" width="10" height="10" as="geometry"/>
        </mxCell>
        <mxCell id="yZBAhHWUgZmdw2wKlDN5-15" value="" style="ellipse;whiteSpace=wrap;html=1;aspect=fixed;" vertex="1" parent="1">
          <mxGeometry x="330" y="360" width="10" height="10" as="geometry"/>
        </mxCell>
        <mxCell id="yZBAhHWUgZmdw2wKlDN5-16" value="" style="ellipse;whiteSpace=wrap;html=1;aspect=fixed;" vertex="1" parent="1">
          <mxGeometry x="280" y="360" width="10" height="10" as="geometry"/>
        </mxCell>
        <mxCell id="yZBAhHWUgZmdw2wKlDN5-17" value="" style="ellipse;whiteSpace=wrap;html=1;aspect=fixed;" vertex="1" parent="1">
          <mxGeometry x="190" y="390" width="10" height="10" as="geometry"/>
        </mxCell>
        <mxCell id="yZBAhHWUgZmdw2wKlDN5-18" value="" style="ellipse;whiteSpace=wrap;html=1;aspect=fixed;" vertex="1" parent="1">
          <mxGeometry x="150" y="350" width="10" height="10" as="geometry"/>
        </mxCell>
        <mxCell id="yZBAhHWUgZmdw2wKlDN5-19" value="" style="ellipse;whiteSpace=wrap;html=1;aspect=fixed;" vertex="1" parent="1">
          <mxGeometry x="20" y="400" width="10" height="10" as="geometry"/>
        </mxCell>
        <mxCell id="yZBAhHWUgZmdw2wKlDN5-20" value="" style="ellipse;whiteSpace=wrap;html=1;aspect=fixed;" vertex="1" parent="1">
          <mxGeometry x="20" y="350" width="10" height="10" as="geometry"/>
        </mxCell>
        <mxCell id="yZBAhHWUgZmdw2wKlDN5-22" value="12.2&lt;br&gt;Display query details" style="shape=process;whiteSpace=wrap;html=1;backgroundOutline=1;" vertex="1" parent="1">
          <mxGeometry x="380" y="260" width="120" height="60" as="geometry"/>
        </mxCell>
        <mxCell id="yZBAhHWUgZmdw2wKlDN5-23" value="" style="endArrow=classic;html=1;" edge="1" parent="1">
          <mxGeometry width="50" height="50" relative="1" as="geometry">
            <mxPoint x="154.5" y="360" as="sourcePoint"/>
            <mxPoint x="154.5" y="390" as="targetPoint"/>
          </mxGeometry>
        </mxCell>
        <mxCell id="yZBAhHWUgZmdw2wKlDN5-24" value="" style="endArrow=classic;html=1;" edge="1" parent="1">
          <mxGeometry width="50" height="50" relative="1" as="geometry">
            <mxPoint x="194.5" y="390" as="sourcePoint"/>
            <mxPoint x="194.5" y="360" as="targetPoint"/>
          </mxGeometry>
        </mxCell>
        <mxCell id="yZBAhHWUgZmdw2wKlDN5-25" value="" style="endArrow=classic;html=1;" edge="1" parent="1">
          <mxGeometry width="50" height="50" relative="1" as="geometry">
            <mxPoint x="290" y="370" as="sourcePoint"/>
            <mxPoint x="320" y="390" as="targetPoint"/>
          </mxGeometry>
        </mxCell>
        <mxCell id="yZBAhHWUgZmdw2wKlDN5-26" value="" style="endArrow=classic;html=1;" edge="1" parent="1">
          <mxGeometry width="50" height="50" relative="1" as="geometry">
            <mxPoint x="330" y="360" as="sourcePoint"/>
            <mxPoint x="300" y="340" as="targetPoint"/>
          </mxGeometry>
        </mxCell>
        <mxCell id="yZBAhHWUgZmdw2wKlDN5-28" value="Database credentials" style="text;html=1;strokeColor=none;fillColor=none;align=center;verticalAlign=middle;whiteSpace=wrap;rounded=0;" vertex="1" parent="1">
          <mxGeometry x="-50" y="350" width="40" height="20" as="geometry"/>
        </mxCell>
        <mxCell id="yZBAhHWUgZmdw2wKlDN5-29" value="Database connection object" style="text;html=1;strokeColor=none;fillColor=none;align=center;verticalAlign=middle;whiteSpace=wrap;rounded=0;" vertex="1" parent="1">
          <mxGeometry x="40" y="410" width="40" height="20" as="geometry"/>
        </mxCell>
        <mxCell id="yZBAhHWUgZmdw2wKlDN5-30" value="Form variables" style="text;html=1;strokeColor=none;fillColor=none;align=center;verticalAlign=middle;whiteSpace=wrap;rounded=0;" vertex="1" parent="1">
          <mxGeometry x="100" y="350" width="40" height="20" as="geometry"/>
        </mxCell>
        <mxCell id="yZBAhHWUgZmdw2wKlDN5-32" value="Prepared statement" style="text;html=1;strokeColor=none;fillColor=none;align=center;verticalAlign=middle;whiteSpace=wrap;rounded=0;" vertex="1" parent="1">
          <mxGeometry x="210" y="370" width="40" height="20" as="geometry"/>
        </mxCell>
        <mxCell id="yZBAhHWUgZmdw2wKlDN5-33" value="Prepared statement" style="text;html=1;strokeColor=none;fillColor=none;align=center;verticalAlign=middle;whiteSpace=wrap;rounded=0;" vertex="1" parent="1">
          <mxGeometry x="280" y="395" width="40" height="20" as="geometry"/>
        </mxCell>
        <mxCell id="yZBAhHWUgZmdw2wKlDN5-34" value="Query object" style="text;html=1;strokeColor=none;fillColor=none;align=center;verticalAlign=middle;whiteSpace=wrap;rounded=0;" vertex="1" parent="1">
          <mxGeometry x="320" y="330" width="40" height="20" as="geometry"/>
        </mxCell>
        <mxCell id="yZBAhHWUgZmdw2wKlDN5-37" value="" style="rhombus;whiteSpace=wrap;html=1;" vertex="1" parent="1">
          <mxGeometry x="430" y="110" width="20" height="20" as="geometry"/>
        </mxCell>
        <mxCell id="yZBAhHWUgZmdw2wKlDN5-39" value="" style="endArrow=classic;html=1;" edge="1" parent="1">
          <mxGeometry width="50" height="50" relative="1" as="geometry">
            <mxPoint x="424.5" y="190" as="sourcePoint"/>
            <mxPoint x="424.5" y="220" as="targetPoint"/>
          </mxGeometry>
        </mxCell>
        <mxCell id="yZBAhHWUgZmdw2wKlDN5-40" value="Statement object" style="text;html=1;strokeColor=none;fillColor=none;align=center;verticalAlign=middle;whiteSpace=wrap;rounded=0;" vertex="1" parent="1">
          <mxGeometry x="370" y="190" width="40" height="20" as="geometry"/>
        </mxCell>
      </root>
    </mxGraphModel>
  </diagram>
</mxfile>
